<svg xmlns="http://www.w3.org/2000/svg" viewBox="0 0 78.76 71.99"><defs><style>.cls-1{fill:#48dad0;}.cls-2{fill:#383c45;}</style></defs><title>HERE_Logo_Dark</title><g id="Layer_2" data-name="Layer 2"><g id="Components"><g id="Logo"><path id="triangle" class="cls-1" d="M21.73,61.12,10.87,72,0,61.13Z"/><path id="here" class="cls-2" d="M37.61,36.45c-2.27-2.69-2.16-4.15-.75-5.55,1.71-1.7,3.44-1,5.38.9ZM60.87,6.9c1.71-1.7,3.44-1,5.38.9l-4.64,4.64C59.35,9.74,59.46,8.3,60.87,6.9Zm14,4.73c-2.12,3.16-5.78,8.28-9.63,4.43L75,6.3c-.88-.94-1.54-1.72-2-2.23C67.73-1.2,61.81-1.27,57.16,3.36c-3.1,3.09-3.92,6.63-3,10L51.1,9.88a6.35,6.35,0,0,0-1.82,8.77l-3.5-2.91-4.64,4.63,6.27,6.27c-4.84-3.84-10.07-3.47-14.26.71-4.49,4.47-4.17,9.89-.81,14.36L31.66,41c-4.43-4.43-9.25-2.87-11.63-.48-1.84,1.84-3,4.37-2.51,6.14L7.9,37.07,2.79,42.18,21.73,61.13H31.9L25.07,54.3c-3.59-3.65-3.65-5.58-1.9-7.31s3.63-.63,7.07,2.8L37,56.53l5.08-5.08-6.4-6.4c4.62,3.49,10.14,3.68,15.08-1.24l.09-.09h0a14.56,14.56,0,0,0,3.91-5.51L50.9,35.63c-2.12,3.16-5.77,8.29-9.62,4.44L51,30.29l6.09,6.09,5.31-5.31-7.62-7.62c-3.56-3.56-1.45-6.9,0-8.16a15.08,15.08,0,0,0,3,4.17c4.93,4.94,11.3,5.94,16.9.35l.09-.09h0a14.57,14.57,0,0,0,3.91-5.51Z"/></g></g></g></svg>